<svg width="22" height="20" viewBox="0 0 22 20" fill="none" xmlns="http://www.w3.org/2000/svg">
<path d="M19.2611 3.182C18.7892 2.70983 18.2289 2.33526 17.6122 2.07971C16.9956 1.82415 16.3346 1.69262 15.6671 1.69262C14.9995 1.69262 14.3385 1.82415 13.7219 2.07971C13.1052 2.33526 12.5449 2.70983 12.0731 3.182L11.0941 4.161L10.1151 3.182C9.64501 2.70135 9.08429 2.31872 8.46536 2.05626C7.84643 1.7938 7.18158 1.65672 6.50931 1.65297C5.83704 1.64922 5.1707 1.77887 4.54888 2.03441C3.92705 2.28994 3.3621 2.66629 2.88673 3.14167C2.41135 3.61704 2.035 4.182 1.77946 4.80382C1.52392 5.42564 1.39428 6.09198 1.39803 6.76425C1.40178 7.43652 1.53885 8.10137 1.80131 8.72031C2.06377 9.33924 2.44641 9.89996 2.92706 10.37L3.90606 11.349L11.0941 18.537L18.2821 11.349L19.2611 10.37C19.7332 9.89814 20.1078 9.33787 20.3633 8.72119C20.6189 8.10452 20.7504 7.44353 20.7504 6.776C20.7504 6.10847 20.6189 5.44748 20.3633 4.83081C20.1078 4.21413 19.7332 3.65386 19.2611 3.182V3.182Z" stroke="#303030" stroke-width="1.5" stroke-linecap="round" stroke-linejoin="round"/>
</svg>
