<svg width="22" height="22" viewBox="0 0 22 22" fill="none" xmlns="http://www.w3.org/2000/svg">
<path d="M20.435 10.4765C20.4397 11.8623 20.1164 13.2295 19.4915 14.4665C18.7518 15.9462 17.6148 17.1907 16.2078 18.0608C14.8008 18.9308 13.1793 19.3919 11.525 19.3925C10.1418 19.396 8.77722 19.0727 7.54253 18.449L1.56653 20.435L3.55853 14.4665C2.93421 13.2294 2.61142 11.8622 2.61653 10.4765C2.61698 8.82238 3.07788 7.20103 3.94763 5.79403C4.81737 4.38702 6.06161 3.2499 7.54103 2.51C8.77617 1.88608 10.1412 1.5628 11.525 1.5665H12.0485C14.2336 1.6869 16.2975 2.60912 17.845 4.15656C19.3924 5.70401 20.3146 7.7679 20.435 9.953V10.4765Z" stroke="black" stroke-width="1.5" stroke-linecap="round" stroke-linejoin="round"/>
</svg>
